<svg width="207" height="48" viewBox="0 0 207 48" fill="none" xmlns="http://www.w3.org/2000/svg">
<rect width="39" height="41" fill="black"/>
<path d="M19.0824 14.3472C19.0467 15.1151 19.0107 15.9309 18.9745 16.7947C18.9703 17.6587 19.0301 18.507 19.1541 19.3396C18.8331 19.5301 18.4644 19.6723 18.048 19.7662C17.6315 19.8602 17.1993 19.9061 16.7513 19.9039C16.6916 19.0076 16.4238 18.1583 15.9477 17.356C15.5036 16.5538 14.8988 15.8948 14.1333 15.3791C13.3678 14.8634 12.4571 14.6029 11.4011 14.5978C10.4091 14.5929 9.60795 14.829 8.99761 15.306C8.41928 15.7832 8.12816 16.4218 8.12426 17.2218C8.12161 17.7658 8.23126 18.2463 8.45323 18.6634C8.7072 19.0807 9.23301 19.5312 10.0307 20.0151C10.8605 20.4672 12.1217 21.0333 13.8144 21.7136C15.5393 22.362 16.8961 23.0087 17.885 23.6535C18.8739 24.2983 19.5743 25.0218 19.9864 25.8238C20.3985 26.6258 20.6018 27.6028 20.5961 28.7548C20.5896 30.0988 20.1998 31.2809 19.4268 32.3011C18.6539 33.3214 17.594 34.1162 16.2472 34.6856C14.9325 35.2232 13.4432 35.488 11.7792 35.4799C9.85926 35.4705 8.32398 35.319 7.1734 35.0254C6.05498 34.6999 4.95317 34.2465 3.868 33.6652C3.93449 33.1536 3.96954 32.5297 3.97313 31.7937C4.00872 31.0579 4.02831 30.322 4.0319 29.586C4.03549 28.85 4.00653 28.2258 3.94503 27.7135C4.20196 27.5228 4.55458 27.3965 5.00289 27.3347C5.48335 27.241 5.96358 27.1954 6.44358 27.1977C6.68974 29.215 7.3064 30.722 8.29354 31.7188C9.28069 32.7156 10.6063 33.2181 12.2702 33.2262C13.5822 33.2326 14.5916 32.9495 15.2984 32.377C16.0372 31.8046 16.4088 31.0704 16.4132 30.1744C16.416 29.5984 16.2744 29.1017 15.9884 28.6843C15.7345 28.2671 15.2405 27.8486 14.5065 27.4291C13.7726 27.0095 12.687 26.5082 11.2498 25.9252C9.5253 25.2127 8.13651 24.55 7.08349 23.9368C6.06247 23.3238 5.31399 22.6002 4.83805 21.7658C4.39412 20.9317 4.17527 19.8746 4.18152 18.5946C4.18651 17.5706 4.4468 16.6919 4.96238 15.9584C5.47812 15.1929 6.13716 14.5721 6.93949 14.096C7.77398 13.5881 8.65576 13.2243 9.58485 13.0049C10.5141 12.7534 11.3787 12.6296 12.1787 12.6335C13.6187 12.6406 14.882 12.7907 15.9685 13.084C17.0551 13.3773 18.0931 13.7984 19.0824 14.3472ZM32.4542 35.5807C30.5663 35.5715 29.1606 35.0846 28.2373 34.1201C27.3462 33.1238 26.9059 31.5376 26.9165 29.3616L26.98 16.3538C26.5008 16.1914 26.0054 16.061 25.4939 15.9625C24.9825 15.832 24.3269 15.7488 23.5271 15.7129C23.5291 15.2969 23.5628 14.9451 23.6282 14.6574C23.6938 14.3377 23.8075 13.9863 23.9693 13.6031L26.9933 13.6178L27.0242 7.28188C27.665 7.125 28.2902 6.87205 28.8999 6.52302C29.5417 6.17415 30.1035 5.79288 30.5855 5.37923C30.9049 5.50879 31.112 5.7018 31.2067 5.95827C31.3015 6.21473 31.3464 6.85496 31.3414 7.87895L31.3133 13.6389L37.5532 13.6693C37.5516 13.9893 37.5179 14.3412 37.452 14.7248C37.3863 15.0765 37.2726 15.428 37.1109 15.7792C35.9587 15.8056 34.9024 15.8804 33.9418 16.0037C32.9813 16.095 32.1007 16.2187 31.2999 16.3748L31.2414 28.3747C31.2362 29.4307 31.3439 30.3112 31.5645 31.0163C31.7852 31.6894 32.1028 32.187 32.5172 32.509C32.9317 32.831 33.4269 32.9934 34.0029 32.9962C34.6749 32.9995 35.2513 32.9063 35.7323 32.7167C36.2452 32.5272 36.7266 32.2415 37.1765 31.8597C37.5901 32.3417 37.8275 32.8709 37.8887 33.4472C37.3738 34.0527 36.5873 34.5609 35.5293 34.9717C34.5032 35.3827 33.4782 35.5857 32.4542 35.5807ZM51.5974 35.6741C49.4214 35.6635 47.5197 35.1902 45.8922 34.2542C44.265 33.2863 43.0074 31.9521 42.1197 30.2518C41.2322 28.5194 40.794 26.5013 40.8052 24.1973C40.8159 22.0213 41.2894 20.0716 42.2258 18.3482C43.1622 16.6247 44.4488 15.271 46.0857 14.2869C47.7225 13.3029 49.5969 12.8161 51.7088 12.8264C53.9808 12.8374 55.9145 13.3269 57.5097 14.2947C59.137 15.2626 60.3785 16.6127 61.234 18.3449C62.0898 20.0451 62.5121 22.0312 62.501 24.3031C62.4904 26.4791 62.0169 28.4288 61.0804 30.1523C60.176 31.8759 58.9054 33.2297 57.2686 34.2137C55.6638 35.1979 53.7734 35.6847 51.5974 35.6741ZM51.9926 33.372C53.9126 33.3814 55.3404 32.6043 56.276 31.0409C57.2118 29.4454 57.6859 27.3837 57.6982 24.8557C57.7079 22.8717 57.4123 21.1583 56.8113 19.7153C56.2425 18.2405 55.464 17.1167 54.4757 16.3439C53.4876 15.5391 52.4016 15.1338 51.2176 15.128C49.3616 15.1189 47.966 15.8641 47.0307 17.3636C46.1273 18.8632 45.6698 20.813 45.6581 23.213C45.6476 25.3569 45.8947 27.1982 46.3992 28.7366C46.9358 30.2433 47.6822 31.3989 48.6383 32.2036C49.5945 32.9763 50.7126 33.3657 51.9926 33.372ZM74.0605 28.2956C74.0538 29.6716 74.1927 30.7282 74.4771 31.4656C74.7616 32.171 75.2232 32.6693 75.8618 32.9604C76.5005 33.2195 77.3157 33.3835 78.3074 33.4524C78.4022 33.7088 78.4647 34.0131 78.495 34.3653C78.5254 34.6854 78.5395 35.0695 78.5373 35.5175C78.0575 35.4832 77.4817 35.4483 76.8098 35.4131C76.1698 35.4099 75.4819 35.3906 74.7461 35.355C74.0101 35.3514 73.2581 35.3477 72.4901 35.344C71.3701 35.3385 70.1862 35.3328 68.9382 35.3267C67.722 35.3527 66.7938 35.3962 66.1535 35.4571C66.1557 35.0091 66.1736 34.6252 66.2071 34.3053C66.2408 33.9535 66.3063 33.6498 66.4036 33.3943C67.2679 33.3345 67.9406 33.1938 68.4216 32.9721C68.9029 32.7185 69.2409 32.3041 69.4357 31.7291C69.6307 31.122 69.7307 30.2905 69.7359 29.2345L69.7593 24.4345L74.0793 24.4556L74.0605 28.2956ZM74.0947 21.2877L74.0762 25.0796L69.7563 25.0585L69.7823 19.7306L74.1251 15.0477C74.1198 16.1357 74.019 17.1272 73.8226 18.0223C73.6264 18.8853 73.4462 19.7485 73.282 20.6117L74.0947 21.2877ZM73.0406 20.8985C73.397 20.0042 73.6725 19.2696 73.8674 18.6945C74.0622 18.1195 74.2725 17.6405 74.4984 17.2576C75.2078 16.141 76.0443 15.2171 77.0079 14.4858C77.9715 13.7545 79.0773 13.3919 80.3253 13.398C81.5413 13.4039 82.6434 13.7933 83.6316 14.5661C83.5651 15.0778 83.4982 15.6695 83.4309 16.3411C83.3637 17.0128 83.3124 17.6846 83.2771 18.3564C83.2738 19.0284 83.2708 19.6524 83.268 20.2284C82.9795 20.323 82.5791 20.417 82.0666 20.5105C81.5861 20.6042 81.0739 20.6497 80.5299 20.647C80.4734 19.1107 80.2223 18.1015 79.7767 17.6193C79.363 17.1373 78.8362 16.8947 78.1962 16.8916C77.6522 16.889 77.0587 17.2061 76.4155 17.8429C75.7726 18.4478 75.2246 19.2611 74.7716 20.2829C74.3186 21.3047 74.0891 22.4396 74.083 23.6876L73.0406 20.8985ZM69.7563 25.0585L69.7823 19.7306C69.786 18.9626 69.709 18.3382 69.5514 17.8575C69.3937 17.3767 69.0595 17.007 68.5488 16.7485C68.038 16.4901 67.2548 16.3422 66.1989 16.3051C66.2006 15.9531 66.2342 15.6332 66.2996 15.3456C66.365 15.0579 66.4783 14.7864 66.6396 14.5312C67.6319 14.472 68.7688 14.2856 70.0503 13.9718C71.3319 13.6581 72.3416 13.311 73.0795 12.9306C73.367 13.028 73.606 13.2372 73.7964 13.5581C74.019 13.8472 74.1286 14.3437 74.1251 15.0477L69.7563 25.0585ZM102.749 21.1874C103.591 19.1435 103.79 17.7525 103.345 17.0143C102.933 16.2443 102.024 15.7278 100.617 15.465C100.491 15.1123 100.396 14.7759 100.334 14.4556C100.303 14.1034 100.289 13.7513 100.291 13.3993C101.027 13.4349 101.779 13.4706 102.546 13.5063C103.314 13.5101 104.146 13.5142 105.042 13.5185C105.938 13.5229 106.786 13.527 107.586 13.5309C108.386 13.5028 109.139 13.4745 109.843 13.4459C109.841 13.7659 109.824 14.1019 109.79 14.4537C109.788 14.8057 109.706 15.1573 109.545 15.5085C108.968 15.6337 108.471 15.8553 108.053 16.1732C107.668 16.4914 107.297 16.9856 106.942 17.6558C106.587 18.3261 106.15 19.268 105.632 20.4815L98.4945 37.2469C97.5879 39.4185 96.7633 41.1745 96.0208 42.5149C95.3103 43.8554 94.6333 44.8761 93.9898 45.577C93.3784 46.278 92.7521 46.755 92.1108 47.0078C91.5016 47.2609 90.829 47.3856 90.093 47.382C89.133 47.3773 88.3656 47.2456 87.7909 46.9868C87.2481 46.7281 86.8173 46.486 86.4984 46.2605C86.3728 45.7798 86.3277 45.1716 86.3633 44.4358C86.3987 43.7319 86.4655 43.1723 86.5635 42.7567C87.107 42.8554 87.6347 42.922 88.1466 42.9565C88.6582 43.023 89.1541 43.0574 89.6341 43.0597C90.5621 43.0642 91.4431 42.8445 92.2773 42.4006C93.1435 41.9568 93.883 41.2404 94.4958 40.2514C94.9471 39.5816 95.6256 38.2569 96.5312 36.2773C97.4367 34.3297 98.3917 32.0783 99.3962 29.5232L102.749 21.1874ZM97.0583 36.4719C96.2986 34.7721 95.4912 32.9922 94.6363 31.132C93.8135 29.2399 93.0224 27.4281 92.2628 25.6963C91.5032 23.9646 90.8383 22.5053 90.2681 21.3186C89.5399 19.715 88.9218 18.5119 88.4137 17.7095C87.9376 16.9071 87.4764 16.3449 87.0299 16.0227C86.6155 15.7007 86.1365 15.4903 85.593 15.3917C85.4984 15.1032 85.4199 14.7828 85.3577 14.4305C85.3274 14.0784 85.3132 13.7103 85.3151 13.3263C86.2429 13.3628 87.1707 13.3993 88.0986 13.4359C89.0265 13.4404 89.9065 13.4447 90.7385 13.4488C91.5705 13.4528 92.5945 13.4578 93.8105 13.4637C95.0266 13.4377 96.1308 13.4111 97.1229 13.3839C97.1209 13.7999 97.087 14.1837 97.0213 14.5354C96.9877 14.8553 96.9063 15.1589 96.7768 15.4462C95.0475 15.7258 94.053 16.233 93.7934 16.9677C93.534 17.6704 93.8319 18.9199 94.6871 20.7161C95.1306 21.6463 95.6371 22.7688 96.2067 24.0836C96.7765 25.3663 97.3301 26.6651 97.8677 27.9797C98.4055 29.2623 98.8639 30.4006 99.2431 31.3945L97.0583 36.4719ZM120.438 36.0099C118.55 36.0007 117.144 35.5138 116.221 34.5493C115.329 33.5529 114.889 31.9668 114.9 29.7908L114.963 16.783C114.484 16.6206 113.989 16.4902 113.477 16.3917C112.966 16.2612 112.31 16.178 111.51 16.1421C111.512 15.7261 111.546 15.3743 111.612 15.0866C111.677 14.7669 111.791 14.4155 111.953 14.0322L114.977 14.047L115.008 7.71107C115.648 7.55419 116.274 7.30124 116.883 6.95221C117.525 6.60333 118.087 6.22207 118.569 5.80842C118.888 5.93798 119.095 6.13099 119.19 6.38745C119.285 6.64392 119.33 7.28415 119.325 8.30813L119.297 14.0681L125.537 14.0985C125.535 14.4185 125.501 14.7703 125.435 15.154C125.37 15.5057 125.256 15.8572 125.094 16.2084C123.942 16.2348 122.886 16.3096 121.925 16.4329C120.965 16.5242 120.084 16.6479 119.283 16.804L119.225 28.8039C119.22 29.8599 119.327 30.7404 119.548 31.4455C119.769 32.1186 120.086 32.6161 120.501 32.9382C120.915 33.2602 121.41 33.4226 121.986 33.4254C122.658 33.4287 123.235 33.3355 123.716 33.1458C124.229 32.9563 124.71 32.6707 125.16 32.2889C125.573 32.7709 125.811 33.3001 125.872 33.8764C125.357 34.4819 124.571 34.99 123.513 35.4009C122.487 35.8119 121.462 36.0149 120.438 36.0099ZM129.059 35.7639C129.061 35.4439 129.078 35.108 129.112 34.7562C129.146 34.3724 129.212 34.0207 129.309 33.7011C130.589 33.7074 131.454 33.4236 131.905 32.8498C132.388 32.2441 132.634 31.1413 132.641 29.5413L132.688 20.0375C132.691 19.2695 132.615 18.6451 132.457 18.1643C132.331 17.6517 132.013 17.2661 131.503 17.0076C130.992 16.7491 130.192 16.6172 129.104 16.6119C129.106 16.2599 129.14 15.9401 129.205 15.6524C129.271 15.3647 129.384 15.0933 129.545 14.8381C130.025 14.8404 130.697 14.7637 131.562 14.6079C132.459 14.4523 133.324 14.2485 134.157 13.9966C134.99 13.7446 135.6 13.4916 135.985 13.2375C136.272 13.3349 136.512 13.528 136.702 13.817C136.925 14.1061 137.035 14.5546 137.032 15.1626L136.961 29.5624C136.954 31.1624 137.156 32.2674 137.569 32.8774C138.014 33.4556 138.749 33.7472 139.773 33.7522C139.867 34.0726 139.93 34.441 139.96 34.8571C139.99 35.2733 140.004 35.5933 140.003 35.8173C139.459 35.7827 138.883 35.7479 138.275 35.7129C137.667 35.7099 137.043 35.6909 136.404 35.6558C135.796 35.6528 135.188 35.6498 134.58 35.6469C133.972 35.6439 133.332 35.6408 132.66 35.6375C132.02 35.6664 131.395 35.6793 130.787 35.6764C130.179 35.7054 129.603 35.7346 129.059 35.7639ZM134.523 7.80627C133.723 7.80236 133.053 7.52709 132.511 6.98044C131.97 6.4338 131.701 5.77648 131.705 5.00849C131.709 4.1445 132.001 3.44191 132.579 2.90072C133.158 2.35954 133.815 2.09074 134.551 2.09433C135.415 2.09855 136.102 2.3739 136.611 2.92039C137.153 3.46704 137.421 4.17236 137.417 5.03635C137.413 5.77234 137.122 6.42693 136.543 7.00011C135.997 7.54145 135.323 7.81017 134.523 7.80627ZM143.496 35.8344C143.499 35.3864 143.516 35.0025 143.55 34.6826C143.584 34.3308 143.649 34.0271 143.746 33.7716C145.027 33.7138 145.892 33.414 146.343 32.8722C146.826 32.2986 147.071 31.2118 147.079 29.6118L147.125 20.1079C147.129 19.3399 147.052 18.7155 146.894 18.2347C146.737 17.754 146.402 17.3843 145.892 17.1258C145.381 16.8673 144.598 16.7195 143.542 16.6824C143.543 16.3304 143.577 16.0105 143.642 15.7228C143.708 15.4352 143.821 15.1637 143.982 14.9085C144.527 14.8791 145.199 14.7864 146 14.6303C146.833 14.4424 147.634 14.2383 148.403 14.018C149.172 13.7658 149.765 13.5287 150.182 13.3067C150.47 13.4041 150.709 13.5973 150.899 13.8862C151.122 14.1753 151.232 14.6239 151.229 15.2318C151.226 15.7438 151.192 16.3357 151.124 17.0074C151.089 17.6792 150.988 18.6707 150.822 19.9819L150.342 20.0276C150.795 18.8138 151.119 17.9993 151.313 17.5843C151.539 17.1694 151.701 16.8982 151.797 16.7706C152.313 16.0371 153.165 15.2893 154.352 14.5271C155.572 13.733 157.014 13.34 158.678 13.3482C160.022 13.3547 161.253 13.6647 162.37 14.2782C163.487 14.8916 164.298 15.9356 164.802 17.4101C164.929 17.7947 164.99 18.323 164.987 18.995L164.843 18.9943C165.135 18.1957 165.458 17.5573 165.812 17.079C166.36 16.3457 167.227 15.5979 168.415 14.8357C169.603 14.0415 171.029 13.6484 172.693 13.6565C173.909 13.6625 175.028 13.9239 176.049 14.4409C177.071 14.9259 177.883 15.7459 178.485 16.9008C179.12 18.0239 179.432 19.5615 179.423 21.5134L179.382 29.7693C179.377 30.8573 179.469 31.7058 179.658 32.3147C179.879 32.8918 180.197 33.2934 180.612 33.5194C181.059 33.7456 181.602 33.8922 182.242 33.9593C182.337 34.2478 182.399 34.5521 182.429 34.8723C182.46 35.1924 182.474 35.5765 182.472 36.0245C181.768 35.9571 180.952 35.9051 180.025 35.8686C179.129 35.8642 178.201 35.8597 177.241 35.855C176.601 35.8519 175.945 35.8487 175.273 35.8454C174.601 35.8741 173.944 35.8869 173.304 35.8838C172.664 35.9127 172.072 35.9418 171.528 35.9711C171.53 35.5231 171.548 35.1392 171.582 34.8194C171.615 34.4675 171.681 34.1638 171.778 33.9083C172.642 33.8485 173.315 33.7078 173.796 33.4861C174.277 33.2325 174.615 32.8181 174.81 32.2431C175.005 31.636 175.105 30.8045 175.11 29.7485L175.146 22.4526C175.157 20.1806 174.749 18.6426 173.92 17.8386C173.125 17.0027 172.071 16.5815 170.759 16.5751C169.959 16.5712 169.141 16.8392 168.307 17.3792C167.472 17.8871 166.78 18.7317 166.23 19.9131C165.681 21.0624 165.401 22.6131 165.392 24.565L165.367 29.701C165.358 31.365 165.609 32.4702 166.118 33.0167C166.628 33.5312 167.49 33.8234 168.706 33.8933C168.801 34.1818 168.863 34.4861 168.894 34.8062C168.924 35.1264 168.938 35.5105 168.936 35.9585C168.136 35.8906 167.209 35.838 166.153 35.8009C165.129 35.7959 164.153 35.7911 163.225 35.7866C162.297 35.7821 161.321 35.7773 160.297 35.7723C159.305 35.7995 158.376 35.843 157.512 35.9027C157.514 35.4547 157.532 35.0708 157.566 34.751C157.599 34.3991 157.665 34.0955 157.762 33.8399C158.627 33.7802 159.299 33.6394 159.78 33.4178C160.262 33.1641 160.6 32.7498 160.794 32.1747C160.989 31.5677 161.089 30.7361 161.095 29.6801L161.131 22.1442C161.142 19.8723 160.734 18.3342 159.906 17.5302C159.11 16.6943 158.056 16.2732 156.744 16.2668C155.944 16.2629 155.127 16.5309 154.292 17.0708C153.457 17.5787 152.765 18.4234 152.216 19.6047C151.666 20.754 151.386 22.3047 151.377 24.2567L151.351 29.6326C151.343 31.2326 151.578 32.3217 152.055 32.9001C152.532 33.4464 153.411 33.7547 154.69 33.825C154.785 34.1134 154.847 34.4177 154.878 34.7379C154.908 35.058 154.922 35.4421 154.92 35.8901C154.376 35.8554 153.769 35.8205 153.097 35.7852C152.425 35.7819 151.753 35.7626 151.081 35.7274C150.409 35.7241 149.785 35.721 149.209 35.7182C148.665 35.7156 148.041 35.7125 147.337 35.7091C146.633 35.7377 145.945 35.7503 145.273 35.747C144.601 35.7758 144.008 35.8049 143.496 35.8344ZM196.283 36.3799C194.011 36.3688 192.126 35.8476 190.627 34.8163C189.128 33.7849 187.998 32.4034 187.239 30.6717C186.511 28.9081 186.153 26.9863 186.163 24.9064C186.173 22.8584 186.582 20.9724 187.391 19.2483C188.199 17.5242 189.342 16.1378 190.819 15.089C192.328 14.0403 194.107 13.521 196.154 13.531C198.234 13.5411 199.896 13.9972 201.14 14.8993C202.415 15.8015 203.354 17.0061 203.954 18.5131C204.587 20.0202 204.963 21.686 205.082 23.5106C204.951 24.15 204.708 24.6928 204.354 25.1391C203.81 25.1365 202.994 25.1325 201.906 25.1272C200.818 25.1219 199.586 25.1318 198.21 25.1571C196.834 25.1504 195.426 25.1756 193.985 25.2325C192.545 25.2575 191.185 25.2989 189.905 25.3566L189.917 22.9087L200.093 22.9583C200.103 20.8463 199.727 19.1325 198.966 17.8167C198.204 16.501 197.119 15.8397 195.711 15.8328C194.943 15.8291 194.19 16.0654 193.452 16.5418C192.714 16.9862 192.102 17.7993 191.616 18.9809C191.13 20.1305 190.882 21.7774 190.872 23.9213C190.864 25.4893 191.049 27.0262 191.425 28.5321C191.834 30.0061 192.532 31.2415 193.519 32.2383C194.539 33.2033 195.976 33.6903 197.832 33.6994C198.888 33.7045 199.929 33.4696 200.956 32.9946C201.982 32.5196 202.897 31.8361 203.702 30.944C203.957 31.0732 204.196 31.2984 204.418 31.6195C204.673 31.9087 204.816 32.1814 204.846 32.4376C203.751 33.8723 202.482 34.8901 201.039 35.4911C199.628 36.0922 198.043 36.3885 196.283 36.3799Z" fill="black"/>
<path d="M19.04 15.264C19.008 16.032 18.976 16.848 18.944 17.712C18.944 18.576 19.008 19.424 19.136 20.256C18.816 20.448 18.448 20.592 18.032 20.688C17.616 20.784 17.184 20.832 16.736 20.832C16.672 19.936 16.4 19.088 15.92 18.288C15.472 17.488 14.864 16.832 14.096 16.32C13.328 15.808 12.416 15.552 11.36 15.552C10.368 15.552 9.568 15.792 8.96 16.272C8.384 16.752 8.096 17.392 8.096 18.192C8.096 18.736 8.208 19.216 8.432 19.632C8.688 20.048 9.216 20.496 10.016 20.976C10.848 21.424 12.112 21.984 13.808 22.656C15.536 23.296 16.896 23.936 17.888 24.576C18.88 25.216 19.584 25.936 20 26.736C20.416 27.536 20.624 28.512 20.624 29.664C20.624 31.008 20.24 32.192 19.472 33.216C18.704 34.24 17.648 35.04 16.304 35.616C14.992 36.16 13.504 36.432 11.84 36.432C9.92 36.432 8.384 36.288 7.232 36C6.112 35.68 5.008 35.232 3.92 34.656C3.984 34.144 4.016 33.52 4.016 32.784C4.048 32.048 4.064 31.312 4.064 30.576C4.064 29.84 4.032 29.216 3.968 28.704C4.224 28.512 4.576 28.384 5.024 28.32C5.504 28.224 5.984 28.176 6.464 28.176C6.72 30.192 7.344 31.696 8.336 32.688C9.328 33.68 10.656 34.176 12.32 34.176C13.632 34.176 14.64 33.888 15.344 33.312C16.08 32.736 16.448 32 16.448 31.104C16.448 30.528 16.304 30.032 16.016 29.616C15.76 29.2 15.264 28.784 14.528 28.368C13.792 27.952 12.704 27.456 11.264 26.88C9.536 26.176 8.144 25.52 7.088 24.912C6.064 24.304 5.312 23.584 4.832 22.752C4.384 21.92 4.16 20.864 4.16 19.584C4.16 18.56 4.416 17.68 4.928 16.944C5.44 16.176 6.096 15.552 6.896 15.072C7.728 14.56 8.608 14.192 9.536 13.968C10.464 13.712 11.328 13.584 12.128 13.584C13.568 13.584 14.832 13.728 15.92 14.016C17.008 14.304 18.048 14.72 19.04 15.264ZM32.5153 36.432C30.6273 36.432 29.2193 35.952 28.2913 34.992C27.3953 34 26.9473 32.416 26.9473 30.24L26.9473 17.232C26.4673 17.072 25.9713 16.944 25.4593 16.848C24.9473 16.72 24.2913 16.64 23.4913 16.608C23.4913 16.192 23.5233 15.84 23.5873 15.552C23.6513 15.232 23.7633 14.88 23.9233 14.496L26.9473 14.496L26.9473 8.16C27.5873 8 28.2113 7.744 28.8193 7.392C29.4593 7.04 30.0193 6.656 30.4993 6.24C30.8193 6.368 31.0273 6.56 31.1233 6.816C31.2193 7.072 31.2673 7.712 31.2673 8.736L31.2673 14.496L37.5073 14.496C37.5073 14.816 37.4753 15.168 37.4113 15.552C37.3473 15.904 37.2353 16.256 37.0753 16.608C35.9233 16.64 34.8673 16.72 33.9073 16.848C32.9473 16.944 32.0673 17.072 31.2673 17.232L31.2673 29.232C31.2673 30.288 31.3793 31.168 31.6033 31.872C31.8273 32.544 32.1473 33.04 32.5633 33.36C32.9793 33.68 33.4753 33.84 34.0513 33.84C34.7233 33.84 35.2993 33.744 35.7793 33.552C36.2913 33.36 36.7713 33.072 37.2193 32.688C37.6353 33.168 37.8753 33.696 37.9393 34.272C37.4273 34.88 36.6433 35.392 35.5873 35.808C34.5633 36.224 33.5393 36.432 32.5153 36.432Z" fill="white"/>
</svg>
